HIERARCHY
ROOT root
{
	OFFSET 0.000000 0.000000 0.000000
	CHANNELS 6 Xposition Yposition Zposition Zrotation Yrotation Xrotation
	JOINT lhip
	{
		OFFSET 0.058581 -0.082280 -0.017664
		CHANNELS 3 Zrotation Yrotation Xrotation
		JOINT lknee
		{
			OFFSET 0.043451 -0.386469 0.008037
			CHANNELS 3 Zrotation Yrotation Xrotation
			JOINT lankle
			{
				OFFSET -0.014790 -0.426874 -0.037428
				CHANNELS 3 Zrotation Yrotation Xrotation
				JOINT ltoe
				{
					OFFSET 0.041054 -0.060286 0.122042
					CHANNELS 3 Zrotation Yrotation Xrotation
					End Site
					{
						OFFSET 0.000000 0.000000 0.000000
					}
				}
			}
		}
	}
	JOINT rhip
	{
		OFFSET -0.060310 -0.090513 -0.013543
		CHANNELS 3 Zrotation Yrotation Xrotation
		JOINT rknee
		{
			OFFSET -0.043257 -0.383688 -0.004843
			CHANNELS 3 Zrotation Yrotation Xrotation
			JOINT rankle
			{
				OFFSET 0.019056 -0.420046 -0.034562
				CHANNELS 3 Zrotation Yrotation Xrotation
				JOINT rtoe
				{
					OFFSET -0.034840 -0.062106 0.130323
					CHANNELS 3 Zrotation Yrotation Xrotation
					End Site
					{
						OFFSET 0.000000 0.000000 0.000000
					}
				}
			}
		}
	}
	JOINT lowerback
	{
		OFFSET 0.004439 0.124404 -0.038385
		CHANNELS 3 Zrotation Yrotation Xrotation
		JOINT upperback
		{
			OFFSET 0.004488 0.137956 0.026820
			CHANNELS 3 Zrotation Yrotation Xrotation
			JOINT chest
			{
				OFFSET -0.002265 0.056032 0.002855
				CHANNELS 3 Zrotation Yrotation Xrotation
				JOINT lowerneck
				{
					OFFSET -0.013390 0.211636 -0.033468
					CHANNELS 3 Zrotation Yrotation Xrotation
					JOINT upperneck
					{
						OFFSET 0.010113 0.088937 0.050410
						CHANNELS 3 Zrotation Yrotation Xrotation
						End Site
						{
							OFFSET 0.000000 0.000000 0.000000
						}
					}
				}
				JOINT lclavicle
				{
					OFFSET 0.071702 0.114000 -0.018898
					CHANNELS 3 Zrotation Yrotation Xrotation
					JOINT lshoulder
					{
						OFFSET 0.122921 0.045205 -0.019046
						CHANNELS 3 Zrotation Yrotation Xrotation
						JOINT lelbow
						{
							OFFSET 0.255332 -0.015649 -0.022946
							CHANNELS 3 Zrotation Yrotation Xrotation
							JOINT lwrist
							{
								OFFSET 0.265709 0.012698 -0.007375
								CHANNELS 3 Zrotation Yrotation Xrotation
								End Site
								{
									OFFSET 0.000000 0.000000 0.000000
								}
							}
						}
					}
				}
				JOINT rclavicle
				{
					OFFSET -0.082954 0.112472 -0.023707
					CHANNELS 3 Zrotation Yrotation Xrotation
					JOINT rshoulder
					{
						OFFSET -0.113228 0.046853 -0.008472
						CHANNELS 3 Zrotation Yrotation Xrotation
						JOINT relbow
						{
							OFFSET -0.260127 -0.014369 -0.031269
							CHANNELS 3 Zrotation Yrotation Xrotation
							JOINT rwrist
							{
								OFFSET -0.269108 0.006794 -0.006027
								CHANNELS 3 Zrotation Yrotation Xrotation
								End Site
								{
									OFFSET 0.000000 0.000000 0.000000
								}
							}
						}
					}
				}
			}
		}
	}
}
MOTION
Frames: 17
Frame Time: 0.033333
-0.194594 0.328902 0.997855 -94.159882 -1.763238 94.668229 -2.008917 -9.479604 -17.911408 -3.754238 -1.993608 11.974427 8.363265 13.551521 0.460838 0.000000 -0.000000 0.000000 -3.302587 -2.672960 4.009655 -3.469744 1.133820 47.891251 7.570246 -10.915250 17.357527 0.000000 -0.000000 0.000000 -4.839134 8.969855 -0.140094 -0.381734 4.058225 1.629051 -1.660475 4.350055 3.610120 1.618488 -11.415567 1.104787 4.710868 -7.950306 6.490878 -16.471447 16.312648 1.815239 -46.783103 4.747815 16.589361 -131.423769 -56.920211 169.388788 23.717486 -17.020491 1.937123 13.472224 -8.280199 -3.831220 61.623357 -8.890606 21.348468 127.585686 71.239285 157.215000 -24.495629 17.515387 -5.215045 
-0.265480 0.326643 0.971682 -92.289134 -2.058253 93.154362 -4.461304 -9.047329 -15.846388 -4.872692 -3.237944 21.370400 12.449407 16.454180 -11.319998 0.000000 -0.000000 0.000000 -3.978236 -2.354925 0.749066 -3.583012 0.497990 58.871552 7.920859 -12.052169 11.617494 0.000000 -0.000000 0.000000 -4.759176 7.134291 2.436062 -0.327433 2.959783 -0.162018 -1.759602 3.143120 5.262642 2.628422 -10.870776 -0.817599 3.863133 -6.826573 7.833125 -19.086179 14.922127 0.035605 -47.340433 2.910115 17.303102 -130.346652 -58.396898 167.796466 24.217788 -17.100404 1.784099 15.256851 -9.823826 -5.560640 59.912930 -12.650106 21.166595 122.804062 73.899019 152.288179 -24.839379 16.847494 -3.301065 
-0.331829 0.327143 0.949466 -91.630927 -2.224142 92.002287 -5.897009 -7.706277 -12.718773 -6.278498 -4.957901 27.512189 14.049309 19.198912 -18.885271 0.000000 -0.000000 0.000000 -4.759880 -1.482440 -5.484141 -3.153341 0.182569 69.528561 7.229953 -13.910322 5.604944 0.000000 -0.000000 0.000000 -4.986819 5.382298 4.892744 -0.160269 2.395905 -1.033421 -1.889069 1.691521 6.705302 3.692260 -9.768735 -3.171940 3.394111 -6.126182 8.493013 -22.092424 12.649556 -1.227682 -48.628594 -0.439342 17.568054 -128.209212 -61.135723 165.475776 24.715657 -16.707109 2.753520 17.816260 -11.139440 -6.632475 57.746443 -15.689702 20.301900 118.900971 76.639202 148.559379 -25.744826 16.039091 -0.858306 
-0.395670 0.328993 0.940076 -91.357098 -1.905659 91.622392 -6.028145 -5.945870 -8.520696 -7.387378 -6.600770 29.522325 13.266404 19.867393 -22.410030 0.000000 -0.000000 0.000000 -4.790814 -0.449351 -14.170997 -3.235665 -0.557592 77.039702 6.157537 -16.028260 0.600293 0.000000 -0.000000 0.000000 -5.040116 2.998951 6.700055 0.108303 1.781010 -1.329593 -1.878813 -0.046615 7.285149 3.792342 -8.381885 -4.440136 3.211071 -4.571667 8.695588 -23.368385 11.091205 -1.243282 -51.640017 -4.186959 17.392234 -127.282213 -63.536558 164.844767 25.385992 -16.567114 3.409971 18.588926 -12.393173 -6.414207 56.282777 -18.070512 19.334729 118.307120 77.607750 147.920457 -25.939008 15.929173 -0.797055 
-0.460030 0.330455 0.945912 -90.225423 -0.562751 91.759175 -5.024457 -3.585088 -3.604990 -7.458887 -10.246300 29.056668 10.361552 18.660077 -22.656911 0.000000 -0.000000 0.000000 -3.628115 -0.195374 -22.395986 -4.314870 -2.011390 77.981147 5.440212 -16.357272 -3.496638 0.000000 -0.000000 0.000000 -3.465295 -0.791478 7.831022 0.173845 0.445098 -1.491684 -1.944760 -1.900120 7.332764 2.695277 -7.031072 -4.205043 3.100946 -1.756728 8.224401 -23.750320 10.330060 -1.453780 -54.042303 -6.319951 17.142132 -129.908533 -63.973098 167.053958 26.160774 -16.650022 3.088739 17.414733 -13.542010 -6.179710 54.759537 -20.435275 18.631076 119.369477 75.287060 147.798903 -26.490223 16.191780 -2.784988 
-0.527449 0.332741 0.963589 -88.858043 1.187216 92.303512 -3.001636 -1.743729 1.975652 -6.680877 -13.650257 25.916380 6.579251 16.864106 -18.677231 0.000000 -0.000000 0.000000 -2.406434 0.609577 -28.258134 -5.118865 -5.061822 71.681231 5.425107 -15.673628 -5.756734 0.000000 -0.000000 0.000000 -1.405308 -4.727581 7.809048 0.495201 -0.931276 -1.043482 -1.898340 -3.657529 6.849482 1.143124 -5.597704 -3.013184 2.700331 1.016691 7.113767 -23.768138 9.862867 -1.655587 -54.860299 -7.495233 17.365991 -133.108076 -63.358873 169.748048 26.419299 -16.501658 3.183365 16.077831 -14.768376 -5.890255 52.457839 -22.403414 18.192893 121.209367 72.213362 149.007993 -26.698743 16.756234 -4.502909 
-0.597832 0.335739 0.987004 -88.001588 2.701975 93.815910 -0.522974 -0.604177 6.267296 -5.647123 -14.812633 21.645448 2.455573 15.010959 -10.067616 0.000000 -0.000000 0.000000 -1.820249 2.193566 -32.134441 -4.925955 -9.432329 59.450001 5.294175 -15.135000 -5.310998 0.000000 -0.000000 0.000000 0.279748 -7.982133 6.007437 1.164840 -2.029743 -0.122968 -1.735882 -5.039717 6.107470 -0.246170 -3.835459 -1.689504 1.997315 3.170800 5.929963 -23.087150 10.484066 -1.245939 -55.076928 -8.242814 17.945734 -134.915793 -62.326025 171.728383 26.352828 -17.031627 3.039301 14.941727 -16.556546 -4.953769 50.308598 -22.907032 17.827424 122.047917 69.890832 150.229535 -26.899085 17.409554 -5.871581 
-0.670504 0.338220 1.008735 -87.780601 3.776608 95.888969 1.580319 0.706416 8.435241 -4.667438 -13.754618 18.671333 -1.086647 13.178599 1.828800 0.000000 -0.000000 0.000000 -1.108454 3.408413 -33.926967 -2.804685 -12.096070 42.856402 4.781867 -14.108604 -2.179445 0.000000 -0.000000 0.000000 1.718129 -10.191889 3.069384 1.768269 -2.966290 1.089425 -1.456428 -6.031962 5.228376 -1.775834 -2.594017 -0.484769 1.527688 5.283635 4.599597 -21.963921 11.896060 -0.268659 -55.263367 -8.295287 18.314823 -135.588130 -60.767987 172.672840 25.720377 -17.618992 2.649685 13.556872 -18.339213 -3.188178 49.048943 -22.305652 17.326598 123.112800 68.352663 151.344867 -26.928889 17.906728 -7.287413 
-0.744999 0.339893 1.021987 -88.050309 4.295236 97.631955 2.550538 1.485097 9.039928 -4.233084 -11.615490 19.281892 -2.971665 11.959138 12.037988 0.000000 -0.000000 0.000000 -0.285402 4.164672 -33.348590 0.765074 -10.605517 25.404916 5.259932 -11.060233 3.684577 0.000000 -0.000000 0.000000 2.981818 -11.082480 -0.137370 1.910865 -3.856679 2.710399 -1.370836 -6.429954 4.396829 -3.414511 -2.382442 1.008444 1.810959 7.327417 2.492771 -20.484552 13.058878 0.835410 -55.570023 -7.743678 18.425931 -135.594251 -59.057907 172.906425 24.955794 -17.844558 2.229531 11.770220 -19.453211 -0.988690 49.350811 -21.441922 16.288450 124.250169 67.450772 152.626769 -26.333444 18.100675 -8.671875 
-0.821100 0.343263 1.023676 -88.975174 4.635740 97.828161 2.484069 1.009002 9.233798 -4.319099 -10.029310 24.817685 -3.094672 12.088340 16.566460 0.000000 -0.000000 0.000000 0.902656 4.828564 -30.820139 2.934075 -7.463889 13.911212 5.851333 -8.760444 8.694675 0.000000 -0.000000 0.000000 3.843678 -10.664516 -1.979285 1.652592 -4.212110 4.131233 -1.579208 -6.239465 4.154073 -4.460035 -2.680768 1.912818 2.249858 8.400107 1.056343 -19.255780 13.688617 1.440936 -55.694194 -6.639494 18.269056 -135.330856 -57.517849 172.741887 24.604022 -18.073692 1.744923 10.559991 -19.608766 0.255702 50.547144 -21.234424 15.450825 125.314940 67.079778 153.762359 -25.723061 18.040935 -9.634669 
-0.897023 0.348062 1.013704 -90.555008 4.697045 96.547122 1.711783 -0.105387 8.863609 -5.503234 -8.345918 34.842780 -1.899997 13.297814 15.507309 0.000000 -0.000000 0.000000 2.550687 4.571012 -28.421546 3.337457 -6.099288 13.088818 5.599372 -8.260558 12.543096 0.000000 -0.000000 0.000000 3.861926 -9.107150 -1.873308 1.457087 -3.607085 4.528450 -1.873154 -5.709925 4.712854 -4.531637 -3.174277 1.519132 2.127350 8.093978 1.645596 -18.889438 14.288769 1.152556 -55.444444 -5.155823 18.304320 -134.549153 -56.678015 171.688953 24.516716 -18.422748 1.495356 10.812397 -19.381668 -0.526196 50.974939 -21.329692 15.769960 125.527683 67.008806 153.685872 -25.684042 17.751427 -9.921976 
-0.971874 0.352409 0.994130 -92.308878 4.717897 94.478752 1.718808 -0.470821 7.838947 -6.830150 -5.083829 46.284814 -1.378582 14.872753 11.959013 0.000000 -0.000000 0.000000 3.619271 5.699168 -25.592797 3.396942 -4.575248 19.883721 2.397558 -8.002748 3.869089 0.000000 -0.000000 0.000000 3.541673 -7.557554 -0.121231 1.602223 -2.087062 3.927191 -2.229033 -4.726887 5.298507 -3.461730 -2.650690 0.312227 1.065582 5.851804 4.183113 -19.096790 15.096304 0.380701 -55.016714 -3.042913 18.235052 -133.028569 -56.808798 170.408697 24.277859 -18.346081 1.703222 12.361734 -18.342809 -1.954184 50.573485 -20.631310 16.331852 124.251954 67.040987 152.565029 -26.183346 17.085369 -10.235769 
-1.042647 0.357534 0.970338 -94.206959 4.768990 92.251287 2.884081 0.640391 5.561006 -6.627706 -1.532497 57.545367 -1.644821 15.697146 6.931255 0.000000 -0.000000 0.000000 5.477706 6.310159 -23.345020 2.696561 -2.568165 30.704162 -0.540964 -8.269905 -9.350708 0.000000 -0.000000 0.000000 2.901887 -5.663448 2.767595 1.908609 -0.207555 3.289849 -2.310028 -3.440230 5.589228 -1.811698 -1.688739 -2.203322 -0.260175 2.854662 6.833728 -20.306399 15.488047 -0.955579 -53.809089 -0.352983 17.682897 -130.558106 -58.230963 168.304633 23.801443 -17.776297 2.767797 15.504784 -15.915026 -4.226945 49.708869 -19.048744 17.157746 122.119819 67.872288 150.538444 -27.016957 16.629013 -9.893352 
-1.108225 0.360473 0.953128 -94.923303 4.447328 90.614161 3.924553 0.261263 0.941422 -5.942408 1.454125 67.023722 -1.261684 15.984212 1.878405 0.000000 -0.000000 0.000000 6.427639 5.584348 -19.527524 2.235214 -1.207827 36.655523 -2.343242 -9.365315 -17.471323 0.000000 -0.000000 0.000000 2.201688 -3.425647 5.640633 2.068965 0.927861 3.115944 -2.242669 -2.225468 5.630023 -0.458966 -1.544344 -4.835718 -1.259839 0.269938 8.529572 -22.125468 15.692623 -1.619706 -52.545324 1.493458 16.517386 -127.201971 -60.780802 164.990167 23.553250 -16.773059 3.617320 18.819773 -12.772957 -5.484619 50.088351 -14.569807 18.195481 119.141028 70.169291 148.420304 -28.189202 16.090878 -7.601391 
-1.171366 0.360319 0.948891 -94.510991 3.541762 90.183832 4.344093 -1.639020 -5.996562 -5.015664 4.034963 72.645793 -0.601498 16.104035 -2.486257 0.000000 -0.000000 0.000000 5.815913 4.285495 -14.731802 1.911856 -0.339681 38.005445 -2.607732 -9.252773 -21.080357 0.000000 -0.000000 0.000000 1.407432 -0.637282 7.014238 2.070220 1.377500 3.110092 -2.390746 -0.885936 5.189796 0.631033 -2.338478 -5.669809 -1.437528 -2.668898 9.701927 -22.364220 15.720047 -1.171937 -51.732010 2.655288 15.314807 -126.027682 -61.827178 164.372473 23.649070 -16.228536 2.923767 20.170452 -10.189060 -5.498281 52.596324 -9.241799 18.373576 117.910472 71.857138 149.307097 -28.652086 15.909984 -5.675250 
-1.235044 0.358730 0.957824 -94.181718 2.636734 90.060044 4.558737 -2.717858 -12.570739 -3.930270 5.226735 72.090252 0.640839 15.949796 -6.275002 0.000000 -0.000000 0.000000 4.898748 2.239617 -8.903662 1.409614 1.144200 36.101424 -1.176731 -7.634358 -20.085348 0.000000 -0.000000 0.000000 0.778697 2.582696 7.985050 1.629726 2.170734 2.431169 -2.253577 0.757408 4.768981 1.326404 -4.447609 -4.992314 -0.608520 -5.397792 10.476281 -21.285391 15.382612 -0.859954 -50.903853 3.905992 14.646524 -127.194826 -60.559194 165.933189 24.287865 -16.690400 2.000846 19.340785 -8.026246 -5.757203 56.335230 -6.316187 18.206868 123.175598 72.256917 154.718070 -28.750141 15.963108 -5.403721 
-1.301050 0.356230 0.975956 -94.110814 1.477133 90.460817 4.302963 -3.810266 -17.602588 -3.355938 6.178473 64.653442 2.004435 15.879659 -8.338662 0.000000 -0.000000 0.000000 3.007553 -0.099198 -2.935287 0.940767 2.491561 31.847259 1.617141 -5.355164 -14.619486 0.000000 -0.000000 0.000000 -0.341791 5.987665 8.123331 1.021669 2.959895 1.448513 -1.922376 2.309011 4.493010 2.046625 -6.556198 -3.814637 0.583327 -7.881404 11.114224 -19.740535 15.478725 -0.704028 -50.070214 4.978695 14.861232 -128.941001 -58.710708 167.272118 25.039975 -17.179764 0.476969 17.853814 -6.497208 -5.929207 59.618753 -4.404697 18.909679 131.038121 72.132828 161.547901 -28.938544 15.773754 -5.971593 
